<svg version="1.1" xmlns="http://www.w3.org/2000/svg" xmlns:xlink="http://www.w3.org/1999/xlink" width="48" height="48"><defs><linearGradient x1="13.6676" y1="11.0845" x2="62.37502" y2="64.95812" gradientUnits="userSpaceOnUse" id="color-1"><stop offset="0" stop-color="#000000" stop-opacity="0.3"></stop><stop offset="1" stop-color="#000000" stop-opacity="0"></stop></linearGradient><filter id="dropshadow-base"><feColorMatrix type="matrix" values="0 0 0 0 0  0 0 0 0 0  0 0 0 0 0  0 0 0 .8 0"></feColorMatrix> <feOffset dx="0" dy="1"></feOffset> <feGaussianBlur stdDeviation="1"></feGaussianBlur> <feComposite in="SourceGraphic"></feComposite></filter><filter id="dropshadow-banner" x="-10%" y="-10%" width="120%" height="130%"><feColorMatrix type="matrix" values="0 0 0 0 0  0 0 0 0 0  0 0 0 0 0  0 0 0 .4 0"></feColorMatrix> <feOffset dx="0" dy="1"></feOffset> <feGaussianBlur stdDeviation="0.5"></feGaussianBlur> <feComposite in="SourceGraphic"></feComposite></filter></defs><g fill="none" fill-rule="nonzero" stroke="none" stroke-width="none" stroke-linecap="butt" stroke-linejoin="miter" stroke-miterlimit="10" stroke-dasharray="" stroke-dashoffset="0" font-family="none" font-weight="none" font-size="none" text-anchor="none" style="mix-blend-mode: normal"><path d="M2,24c0,-12.15026 9.84974,-22 22,-22c12.15026,0 22,9.84974 22,22c0,12.15026 -9.84974,22 -22,22c-12.15026,0 -22,-9.84974 -22,-22z" id="base 1 5" fill="#3f51b5" stroke-width="1"></path><path d="M13.79357,36.78954c-0.07786,-0.07786 -0.12597,-0.18549 -0.12597,-0.30453v-19.80381c0,-0.23808 0.19242,-0.4305 0.4305,-0.4305h0.86105v-2.1526c0,-0.23808 0.19242,-0.4305 0.4305,-0.4305h0.86105v-2.1526c0,-0.23808 0.19242,-0.4305 0.4305,-0.4305h14.63764c0.11904,0 0.22667,0.0481 0.30453,0.12597c0,0 0,0 0,0l14.32395,14.32395c-0.78776,11.43439 -10.31287,20.46558 -21.94732,20.46558c-0.34159,0 -0.68137,-0.00779 -1.01916,-0.02319z" fill="url(#color-1)" stroke-width="1"></path><path transform="translate(-6.99723,-6.99723) scale(1.29155,1.29155)" d="M22.33334,22.94877l5.33337,-0.88863v0.99098l-5.33337,0.88867zM27.66667,27.33335c0,0.55133 -0.59801,1 -1.33332,1c-0.73531,0 -1.33332,-0.44867 -1.33332,-1c0,-0.55133 0.59797,-1 1.33332,-1c0.73535,0 1.33332,0.44867 1.33332,1zM21.66666,29.00003c0,0.55133 -0.59801,1 -1.33332,1c-0.73531,0 -1.33332,-0.44867 -1.33332,-1c0,-0.55133 0.59801,-1 1.33332,-1c0.73535,0 1.33332,0.44867 1.33332,1zM32,18.33333v15.33335c0,0.18434 -0.14898,0.33332 -0.33332,0.33332h-15.33335c-0.18434,0 -0.33332,-0.14898 -0.33332,-0.33332v-15.33335c0,-0.18434 0.14898,-0.33332 0.33332,-0.33332h0.66668v-1.66668c0,-0.18434 0.14898,-0.33332 0.33332,-0.33332h0.66668v-1.66668c0,-0.18434 0.14898,-0.33332 0.33332,-0.33332h11.33338c0.18434,0 0.33332,0.14898 0.33332,0.33332v1.66668h0.66668c0.18434,0 0.33332,0.14898 0.33332,0.33332v1.66668h0.66668c0.18434,0 0.33332,0.14898 0.33328,0.33332zM28.33335,21.66666c0,-0.09801 -0.04301,-0.19102 -0.11801,-0.25434c-0.07434,-0.06332 -0.17332,-0.08934 -0.27,-0.07434l-6.00001,1c-0.16066,0.02668 -0.27867,0.16566 -0.27867,0.32867v5.0947c-0.35434,-0.265 -0.82067,-0.42801 -1.33332,-0.42801c-1.10301,0 -2,0.7477 -2,1.66668c0,0.91903 0.89699,1.66668 2,1.66668c1.10301,0 2,-0.7477 2,-1.66668v-4.38438l5.33333,-0.88899v2.36801c-0.35434,-0.265 -0.82067,-0.42801 -1.33332,-0.42801c-1.10301,0 -2,0.7477 -2,1.66668c0,0.91903 0.89699,1.66668 2,1.66668c1.10301,0 2,-0.7477 2,-1.66668zM30.33339,18.00001v-1.33332h-12.6667v1.33332z" fill="none" stroke-width="0"></path><path d="M21.84742,22.64228l6.88832,-1.14772v1.2799l-6.88832,1.14777zM28.73569,28.30519c0,0.71207 -0.77236,1.29155 -1.72205,1.29155c-0.9497,0 -1.72205,-0.57948 -1.72205,-1.29155c0,-0.71207 0.77231,-1.29155 1.72205,-1.29155c0.94975,0 1.72205,0.57948 1.72205,1.29155zM20.98637,30.45779c0,0.71207 -0.77236,1.29155 -1.72205,1.29155c-0.9497,0 -1.72205,-0.57948 -1.72205,-1.29155c0,-0.71207 0.77236,-1.29155 1.72205,-1.29155c0.94975,0 1.72205,0.57948 1.72205,1.29155zM34.3324,16.6812v19.80381c0,0.23808 -0.19242,0.4305 -0.4305,0.4305h-19.80381c-0.23808,0 -0.4305,-0.19242 -0.4305,-0.4305v-19.80381c0,-0.23808 0.19242,-0.4305 0.4305,-0.4305h0.86105v-2.15261c0,-0.23808 0.19242,-0.4305 0.4305,-0.4305h0.86105v-2.15261c0,-0.23808 0.19242,-0.4305 0.4305,-0.4305h14.63764c0.23808,0 0.4305,0.19242 0.4305,0.4305v2.15261h0.86105c0.23808,0 0.4305,0.19242 0.4305,0.4305v2.15261h0.86105c0.23808,0 0.4305,0.19242 0.43045,0.4305zM29.59674,20.98637c0,-0.12658 -0.05555,-0.24671 -0.15241,-0.32849c-0.09601,-0.08178 -0.22385,-0.11538 -0.34872,-0.09601l-7.74932,1.29155c-0.20751,0.03446 -0.35992,0.21396 -0.35992,0.4245v6.58006c-0.45764,-0.34226 -1.05993,-0.5528 -1.72205,-0.5528c-1.42459,0 -2.58311,0.96569 -2.58311,2.15261c0,1.18697 1.15851,2.15261 2.58311,2.15261c1.42459,0 2.58311,-0.96569 2.58311,-2.15261v-5.66266l6.88827,-1.14817v3.05841c-0.45764,-0.34226 -1.05993,-0.5528 -1.72205,-0.5528c-1.42459,0 -2.58311,0.96569 -2.58311,2.15261c0,1.18697 1.15851,2.15261 2.58311,2.15261c1.42459,0 2.58311,-0.96569 2.58311,-2.15261zM32.1799,16.2507v-1.72205h-16.3597v1.72205z" fill="#ff6f00" stroke-width="0"></path><path d="M2,24c0,-12.15026 9.84974,-22 22,-22c12.15026,0 22,9.84974 22,22c0,12.15026 -9.84974,22 -22,22c-12.15026,0 -22,-9.84974 -22,-22z" id="base 1 1 1" fill="none" stroke-width="1"></path><g id="Layer_1 1 1" fill="#000000" stroke-width="1" font-family="Roboto, sans-serif" font-weight="400" font-size="14" text-anchor="start"><g><g><g></g></g></g><g></g><g></g><g></g><g></g><g></g><g></g><g></g><g></g><g></g><g></g><g></g><g></g><g></g><g></g><g></g></g><rect x="2" y="2" width="44" height="22" fill="none" stroke-width="1"></rect><path d="M2,24v-22h44v22z" fill="none" stroke-width="1"></path><path d="M2,24v-22h44v22z" fill="none" stroke-width="1"></path><path d="M2,24v-22h44v22z" fill="none" stroke-width="1"></path><path d="M2,24v-22h44v22z" fill="none" stroke-width="1"></path><path d="M24,2c12.15026,0 22,9.84974 22,22h-44c0,-12.15026 9.84974,-22 22,-22z" id="base 1 1 1" fill-opacity="0.1" fill="#000000" stroke-width="1"></path></g></svg>