<?xml version="1.0" encoding="iso-8859-1"?>
<!-- Generator: Adobe Illustrator 19.0.0, SVG Export Plug-In . SVG Version: 6.00 Build 0)  -->
<svg version="1.1" id="Layer_1" xmlns="http://www.w3.org/2000/svg" xmlns:xlink="http://www.w3.org/1999/xlink" x="0px" y="0px"
	 viewBox="0 0 512 512" style="enable-background:new 0 0 512 512;" xml:space="preserve">
<g>
	<g>
		<g>
			<polygon points="213.333,254.458 349.867,231.708 349.867,206.339 213.333,229.088 			"/>
			<path d="M315.733,315.733c-18.825,0-34.133,11.486-34.133,25.6s15.309,25.6,34.133,25.6s34.133-11.486,34.133-25.6
				S334.558,315.733,315.733,315.733z"/>
			<path d="M162.133,358.4C143.309,358.4,128,369.886,128,384s15.309,25.6,34.133,25.6s34.133-11.486,34.133-25.6
				S180.958,358.4,162.133,358.4z"/>
			<path d="M452.267,102.4H435.2V59.733c0-4.719-3.814-8.533-8.533-8.533H409.6V8.533c0-4.719-3.814-8.533-8.533-8.533H110.933
				c-4.719,0-8.533,3.814-8.533,8.533V51.2H85.333c-4.719,0-8.533,3.814-8.533,8.533V102.4H59.733c-4.719,0-8.533,3.814-8.533,8.533
				v392.533c0,4.719,3.814,8.533,8.533,8.533h392.533c4.719,0,8.533-3.814,8.533-8.533V110.933
				C460.8,106.214,456.986,102.4,452.267,102.4z M366.933,238.933v102.4c0,23.526-22.963,42.667-51.2,42.667
				c-28.237,0-51.2-19.14-51.2-42.667c0-23.526,22.963-42.667,51.2-42.667c13.124,0,25.062,4.173,34.133,10.957v-60.621
				l-136.533,22.758V384c0,23.526-22.963,42.667-51.2,42.667s-51.2-19.14-51.2-42.667c0-23.526,22.963-42.667,51.2-42.667
				c13.124,0,25.062,4.173,34.133,10.957v-87.757v-42.667c0-4.173,3.021-7.731,7.134-8.414l153.6-25.6
				c2.475-0.384,5.009,0.282,6.912,1.903c1.92,1.621,3.021,4.002,3.021,6.511V238.933z M418.133,102.4H93.867V68.267h17.067h290.133
				h17.067V102.4z"/>
		</g>
	</g>
</g>
<g>
</g>
<g>
</g>
<g>
</g>
<g>
</g>
<g>
</g>
<g>
</g>
<g>
</g>
<g>
</g>
<g>
</g>
<g>
</g>
<g>
</g>
<g>
</g>
<g>
</g>
<g>
</g>
<g>
</g>
</svg>
